<?xml version="1.0" encoding="utf-8"?>
<svg width="100%" height="100%" viewBox="0 0 484.31 474.17" version="1.1" xmlns="http://www.w3.org/2000/svg" style="fill-rule:evenodd;clip-rule:evenodd;">
  <g id="アートボード1" transform="matrix(0.960843,0,0,0.829741,-138.712,-453.838)">
    <rect x="144.364" y="546.963" width="1612.12" height="563.269" style="fill:none;" rx="281.634" ry="281.634"/>
    <g id="Waseda_University_Logo.svg" transform="matrix(1.51287,0,0,1.75191,393.922,829.746)">
      <g transform="matrix(1,0,0,1,-158.114,-158.114)">
        <g>
          <path d="M158.119,0L316.222,158.203L158.119,316.228L0,158.203L158.119,0Z" style="fill:rgb(136,28,40);fill-rule:nonzero;"/>
          <g transform="matrix(1,0,0,1,73.7865,152.843)">
            <g transform="matrix(1,0,0,1,89.5979,21.0819)">
              <path d="M52.789,21.925C52.789,21.925 63.135,32.587 41.737,53.996" style="fill:none;stroke:white;stroke-width:1.14px;"/>
              <g transform="matrix(1,0,0,1,15.8114,21.0819)">
                <path d="M1.871,47.555C1.871,47.555 17.329,41.036 27.29,21.651C34.806,7.026 41.452,2.751 48.631,3.884C48.631,3.884 39.982,1.412 32.261,26.6C24.845,50.607 3.579,51.519 3.579,51.519L1.871,47.555Z" style="fill:white;fill-rule:nonzero;stroke:rgb(136,28,40);stroke-width:0.5px;stroke-linecap:round;"/>
                <path d="M48.631,3.879C48.631,3.879 40.287,0.817 30.563,21.983C20.792,43.17 8.538,48.256 8.538,48.256" style="fill:none;stroke:rgb(136,28,40);stroke-width:0.5px;stroke-linecap:round;"/>
              </g>
              <g transform="matrix(1,0,0,1,0,21.0819)">
                <path d="M10.862,52.689C10.862,52.689 31.971,47.155 43.276,33.093C51.166,23.248 61.348,-0.042 73.96,2.187C73.96,2.187 64.932,4.596 57.801,20.291C49.89,37.557 43.444,44.778 33.794,50.913C25.725,55.978 15.89,58.355 5.023,59.93L10.862,52.689Z" style="fill:white;fill-rule:nonzero;stroke:rgb(136,28,40);stroke-width:0.5px;stroke-linecap:round;"/>
                <path d="M6.441,56.968C6.441,56.968 32.645,54.159 46.37,34.764C57.227,19.385 60.689,3.953 73.955,2.193" style="fill:none;stroke:rgb(136,28,40);stroke-width:0.5px;stroke-linecap:round;"/>
              </g>
              <g transform="matrix(1,0,0,1,5.27046,26.3523)">
                <path d="M28.777,4.933C28.777,4.933 19.543,2.709 13.313,28.018C13.313,28.018 29.551,2.029 36.329,9.724C36.335,9.724 36.651,8.122 28.777,4.933Z" style="fill:white;fill-rule:nonzero;"/>
                <g>
                  <path d="M13.318,28.018C13.318,28.018 25.441,-0.295 33.968,7.742" style="fill:none;stroke:rgb(136,28,40);stroke-width:0.5px;"/>
                  <path d="M5.339,43.018C5.339,43.018 12.649,39.465 21.124,31.17C28.866,23.548 35.128,10.393 30.316,5.518C30.316,5.518 33.051,5.971 36.814,9.376C36.814,9.376 42.807,26.885 5.075,50.66L5.339,43.018Z" style="fill:white;fill-rule:nonzero;stroke:rgb(136,28,40);stroke-width:0.5px;stroke-linecap:round;"/>
                  <path d="M34.132,7.3C34.132,7.3 41.552,24.555 4.696,47.25" style="fill:none;stroke:rgb(136,28,40);stroke-width:0.5px;stroke-linecap:round;"/>
                </g>
              </g>
              <g transform="matrix(1,0,0,1,15.8114,0)">
                <path d="M10.251,19.053C12.169,20.376 11.437,24.418 6.209,25.614C4.596,26.036 3.61,27.828 3.61,27.828C3.61,27.828 4.691,26.526 4.738,24.745C4.849,18.705 8.427,17.73 10.251,19.053Z" style="fill:white;fill-rule:nonzero;stroke:rgb(136,28,40);stroke-width:0.5px;stroke-linecap:round;"/>
                <path d="M11.437,13.329C13.387,14.984 12.549,19.095 6.983,19.68C5.223,19.849 4.153,21.588 4.153,21.588C4.153,21.588 5.313,20.37 5.386,18.536C5.634,12.27 9.487,11.711 11.437,13.329Z" style="fill:white;fill-rule:nonzero;stroke:rgb(136,28,40);stroke-width:0.5px;stroke-linecap:round;"/>
                <path d="M15.743,15.4C17.877,16.776 17.593,20.934 12.08,22.247C10.399,22.647 9.561,24.481 9.561,24.481C9.561,24.481 10.551,23.169 10.399,21.335C9.872,15.079 13.577,14.062 15.743,15.4Z" style="fill:white;fill-rule:nonzero;stroke:rgb(136,28,40);stroke-width:0.5px;stroke-linecap:round;"/>
                <path d="M14.378,5.234C14.815,7.748 11.6,10.383 6.867,7.226C5.423,6.261 3.542,6.878 3.542,6.878C3.542,6.878 5.17,6.699 6.435,5.328C10.631,0.706 13.956,2.741 14.378,5.234Z" style="fill:white;fill-rule:nonzero;stroke:rgb(136,28,40);stroke-width:0.5px;stroke-linecap:round;"/>
                <path d="M14.515,9.771C15.337,12.175 12.549,15.274 7.442,12.939C5.855,12.175 4.064,13.129 4.064,13.129C4.064,13.129 5.666,12.654 6.688,11.115C10.146,5.892 13.708,7.437 14.515,9.771Z" style="fill:white;fill-rule:nonzero;stroke:rgb(136,28,40);stroke-width:0.5px;stroke-linecap:round;"/>
                <path d="M19.901,8.422C19.849,10.957 16.138,12.897 12.175,8.955C10.941,7.705 8.918,7.927 8.918,7.927C8.918,7.927 10.578,8.085 12.085,6.973C17.108,3.241 19.97,5.892 19.901,8.422Z" style="fill:white;fill-rule:nonzero;stroke:rgb(136,28,40);stroke-width:0.5px;stroke-linecap:round;"/>
                <path d="M20.934,13.023C21.419,15.558 18.188,18.215 13.471,15.131C12.017,14.156 10.082,14.794 10.082,14.794C10.082,14.794 11.748,14.626 12.976,13.271C17.171,8.591 20.46,10.599 20.934,13.023Z" style="fill:white;fill-rule:nonzero;stroke:rgb(136,28,40);stroke-width:0.5px;stroke-linecap:round;"/>
                <path d="M23.359,17.198C24.439,19.506 21.967,22.89 16.634,21.045C14.973,20.481 13.276,21.609 13.276,21.609C13.276,21.609 14.831,20.992 15.68,19.353C18.568,13.809 22.305,14.879 23.359,17.198Z" style="fill:white;fill-rule:nonzero;stroke:rgb(136,28,40);stroke-width:0.5px;stroke-linecap:round;"/>
                <path d="M24.613,11.147C23.085,13.224 18.968,12.654 17.993,7.11C17.703,5.381 15.912,4.438 15.912,4.438C15.912,4.438 17.187,5.508 19.058,5.465C25.256,5.328 26.094,9.113 24.613,11.147Z" style="fill:white;fill-rule:nonzero;stroke:rgb(136,28,40);stroke-width:0.5px;stroke-linecap:round;"/>
                <path d="M27.227,15.4C26.11,17.73 21.967,17.925 20.001,12.654C19.369,11.063 17.382,10.42 17.382,10.42C17.382,10.42 18.905,11.226 20.687,10.831C26.784,9.534 28.313,13.118 27.227,15.4Z" style="fill:white;fill-rule:nonzero;stroke:rgb(136,28,40);stroke-width:0.5px;stroke-linecap:round;"/>
                <path d="M31.301,12.718C29.515,14.541 25.53,13.45 25.24,7.842C25.203,6.093 23.543,4.917 23.543,4.917C23.543,4.917 24.687,6.124 26.489,6.34C32.745,7.036 33.041,10.905 31.301,12.718Z" style="fill:white;fill-rule:nonzero;stroke:rgb(136,28,40);stroke-width:0.5px;stroke-linecap:round;"/>
                <path d="M35.902,15.738C33.478,16.586 30.395,13.756 32.803,8.67C33.531,7.099 32.614,5.286 32.614,5.286C32.614,5.286 33.041,6.878 34.601,7.916C39.803,11.358 38.316,14.931 35.902,15.738Z" style="fill:white;fill-rule:nonzero;stroke:rgb(136,28,40);stroke-width:0.5px;stroke-linecap:round;"/>
                <path d="M30.316,27.406C31.101,29.836 28.244,32.835 23.158,30.405C21.604,29.631 19.77,30.5 19.77,30.5C19.77,30.5 21.414,30.1 22.468,28.592C25.999,23.432 29.546,24.982 30.316,27.406Z" style="fill:white;fill-rule:nonzero;stroke:rgb(136,28,40);stroke-width:0.5px;stroke-linecap:round;"/>
                <path d="M27.933,22.974C28.713,25.414 25.836,28.381 20.797,25.952C19.242,25.209 17.377,26.057 17.377,26.057C17.377,26.057 19.016,25.667 20.07,24.118C23.617,18.979 27.18,20.55 27.933,22.974Z" style="fill:white;fill-rule:nonzero;stroke:rgb(136,28,40);stroke-width:0.5px;stroke-linecap:round;"/>
                <path d="M31.175,19.87C30.832,22.415 26.943,23.928 23.427,19.553C22.352,18.178 20.281,18.22 20.281,18.22C20.281,18.22 21.951,18.536 23.527,17.603C28.961,14.457 31.48,17.382 31.175,19.87Z" style="fill:white;fill-rule:nonzero;stroke:rgb(136,28,40);stroke-width:0.5px;stroke-linecap:round;"/>
                <path d="M34.079,23.633C34.869,26.105 31.986,29.103 26.943,26.611C25.393,25.846 23.527,26.758 23.527,26.758C23.527,26.758 25.156,26.368 26.231,24.798C29.762,19.68 33.304,21.282 34.079,23.633Z" style="fill:white;fill-rule:nonzero;stroke:rgb(136,28,40);stroke-width:0.5px;stroke-linecap:round;"/>
                <path d="M34.39,17.403C33.251,19.722 29.103,19.949 27.122,14.72C26.489,13.076 24.587,12.465 24.587,12.465C24.587,12.465 26.057,13.271 27.875,12.934C33.958,11.563 35.444,15.153 34.39,17.403Z" style="fill:white;fill-rule:nonzero;stroke:rgb(136,28,40);stroke-width:0.5px;stroke-linecap:round;"/>
                <path d="M38.975,21.872C36.561,22.742 33.478,19.912 35.86,14.794C36.561,13.224 35.66,11.426 35.66,11.426C35.66,11.426 36.092,12.986 37.626,14.056C42.88,17.498 41.378,21.098 38.975,21.872Z" style="fill:white;fill-rule:nonzero;stroke:rgb(136,28,40);stroke-width:0.5px;stroke-linecap:round;"/>
                <path d="M37.436,22.89C36.366,25.219 32.181,25.456 30.2,20.175C29.599,18.541 27.633,17.941 27.633,17.941C27.633,17.941 29.098,18.758 30.922,18.362C37.057,17.029 38.522,20.602 37.436,22.89Z" style="fill:white;fill-rule:nonzero;stroke:rgb(136,28,40);stroke-width:0.5px;stroke-linecap:round;"/>
              </g>
            </g>
            <g transform="matrix(1,0,0,1,0,21.0819)">
              <path d="M26.331,21.925C26.331,21.925 15.991,32.587 37.394,53.996" style="fill:none;stroke:white;stroke-width:1.14px;"/>
              <g transform="matrix(1,0,0,1,10.5409,21.0819)">
                <path d="M50.876,47.555C50.876,47.555 35.454,41.036 25.504,21.651C17.956,7.026 11.305,2.751 4.153,3.884C4.153,3.884 12.802,1.412 20.528,26.6C27.939,50.607 49.173,51.519 49.173,51.519L50.876,47.555Z" style="fill:white;fill-rule:nonzero;stroke:rgb(136,28,40);stroke-width:0.5px;stroke-linecap:round;"/>
                <path d="M4.158,3.879C4.158,3.879 12.475,0.817 22.21,21.983C31.971,43.17 44.235,48.256 44.235,48.256" style="fill:none;stroke:rgb(136,28,40);stroke-width:0.5px;stroke-linecap:round;"/>
              </g>
              <g transform="matrix(1,0,0,1,0,21.0819)">
                <path d="M68.274,52.689C68.274,52.689 47.16,47.155 35.839,33.093C27.965,23.248 17.788,-0.042 5.16,2.187C5.16,2.187 14.209,4.596 21.366,20.291C29.272,37.557 35.655,44.778 45.352,50.913C53.385,55.978 63.261,58.355 74.071,59.93L68.274,52.689Z" style="fill:white;fill-rule:nonzero;stroke:rgb(136,28,40);stroke-width:0.5px;stroke-linecap:round;"/>
                <path d="M72.669,56.968C72.669,56.968 46.501,54.159 32.751,34.764C21.883,19.385 18.415,3.953 5.16,2.193" style="fill:none;stroke:rgb(136,28,40);stroke-width:0.5px;stroke-linecap:round;"/>
              </g>
              <g transform="matrix(1,0,0,1,31.6228,26.3523)">
                <path d="M13.492,4.933C13.492,4.933 22.652,2.709 28.961,28.018C28.961,28.018 12.66,2.029 5.898,9.724C5.892,9.724 5.613,8.122 13.492,4.933Z" style="fill:white;fill-rule:nonzero;"/>
                <g>
                  <path d="M28.961,28.018C28.961,28.018 16.813,-0.295 8.248,7.742" style="fill:none;stroke:rgb(136,28,40);stroke-width:0.5px;"/>
                  <path d="M36.893,43.018C36.893,43.018 29.594,39.465 21.108,31.17C13.35,23.548 7.094,10.393 11.911,5.518C11.911,5.518 9.202,5.971 5.413,9.376C5.413,9.376 -0.596,26.885 37.141,50.66L36.893,43.018Z" style="fill:white;fill-rule:nonzero;stroke:rgb(136,28,40);stroke-width:0.5px;stroke-linecap:round;"/>
                  <path d="M8.106,7.3C8.106,7.3 0.68,24.555 37.552,47.25" style="fill:none;stroke:rgb(136,28,40);stroke-width:0.5px;stroke-linecap:round;"/>
                </g>
              </g>
              <g transform="matrix(1,0,0,1,21.0819,0)">
                <path d="M31.981,19.053C30.115,20.376 30.811,24.418 36.013,25.614C37.642,26.036 38.611,27.828 38.611,27.828C38.611,27.828 37.547,26.526 37.526,24.745C37.373,18.705 33.836,17.73 31.981,19.053Z" style="fill:white;fill-rule:nonzero;stroke:rgb(136,28,40);stroke-width:0.5px;stroke-linecap:round;"/>
                <path d="M30.806,13.329C28.877,14.984 29.699,19.095 35.27,19.68C37.004,19.849 38.105,21.588 38.105,21.588C38.105,21.588 36.914,20.37 36.841,18.536C36.588,12.27 32.74,11.711 30.806,13.329Z" style="fill:white;fill-rule:nonzero;stroke:rgb(136,28,40);stroke-width:0.5px;stroke-linecap:round;"/>
                <path d="M26.5,15.4C24.328,16.776 24.682,20.934 30.131,22.247C31.828,22.647 32.645,24.481 32.645,24.481C32.645,24.481 31.702,23.169 31.849,21.335C32.392,15.079 28.645,14.062 26.5,15.4Z" style="fill:white;fill-rule:nonzero;stroke:rgb(136,28,40);stroke-width:0.5px;stroke-linecap:round;"/>
                <path d="M27.865,5.234C27.417,7.748 30.653,10.383 35.349,7.226C36.793,6.261 38.701,6.878 38.701,6.878C38.701,6.878 37.067,6.699 35.802,5.328C31.602,0.706 28.287,2.741 27.865,5.234Z" style="fill:white;fill-rule:nonzero;stroke:rgb(136,28,40);stroke-width:0.5px;stroke-linecap:round;"/>
                <path d="M27.696,9.771C26.895,12.175 29.699,15.274 34.775,12.939C36.356,12.175 38.195,13.129 38.195,13.129C38.195,13.129 36.566,12.654 35.539,11.115C32.102,5.892 28.54,7.437 27.696,9.771Z" style="fill:white;fill-rule:nonzero;stroke:rgb(136,28,40);stroke-width:0.5px;stroke-linecap:round;"/>
                <path d="M22.357,8.422C22.394,10.957 26.078,12.897 30.079,8.955C31.307,7.705 33.304,7.927 33.304,7.927C33.304,7.927 31.67,8.085 30.152,6.973C25.156,3.241 22.305,5.892 22.357,8.422Z" style="fill:white;fill-rule:nonzero;stroke:rgb(136,28,40);stroke-width:0.5px;stroke-linecap:round;"/>
                <path d="M21.303,13.023C20.813,15.558 24.086,18.215 28.735,15.131C30.237,14.156 32.139,14.794 32.139,14.794C32.139,14.794 30.484,14.626 29.241,13.271C25.082,8.591 21.788,10.599 21.303,13.023Z" style="fill:white;fill-rule:nonzero;stroke:rgb(136,28,40);stroke-width:0.5px;stroke-linecap:round;"/>
                <path d="M18.895,17.198C17.819,19.506 20.275,22.89 25.63,21.045C27.238,20.481 28.94,21.609 28.94,21.609C28.94,21.609 27.417,20.992 26.532,19.353C23.67,13.809 19.949,14.879 18.895,17.198Z" style="fill:white;fill-rule:nonzero;stroke:rgb(136,28,40);stroke-width:0.5px;stroke-linecap:round;"/>
                <path d="M17.609,11.147C19.132,13.224 23.259,12.654 24.234,7.11C24.545,5.381 26.31,4.438 26.31,4.438C26.31,4.438 25.045,5.508 23.179,5.465C16.918,5.328 16.154,9.113 17.609,11.147Z" style="fill:white;fill-rule:nonzero;stroke:rgb(136,28,40);stroke-width:0.5px;stroke-linecap:round;"/>
                <path d="M14.989,15.4C16.101,17.73 20.275,17.925 22.257,12.654C22.89,11.063 24.808,10.42 24.808,10.42C24.808,10.42 23.338,11.226 21.561,10.831C15.411,9.534 13.956,13.118 14.989,15.4Z" style="fill:white;fill-rule:nonzero;stroke:rgb(136,28,40);stroke-width:0.5px;stroke-linecap:round;"/>
                <path d="M10.931,12.718C12.712,14.541 16.728,13.45 16.955,7.842C17.008,6.093 18.7,4.917 18.7,4.917C18.7,4.917 17.545,6.124 15.727,6.34C9.497,7.036 9.186,10.905 10.931,12.718Z" style="fill:white;fill-rule:nonzero;stroke:rgb(136,28,40);stroke-width:0.5px;stroke-linecap:round;"/>
                <path d="M6.34,15.738C8.744,16.586 11.822,13.756 9.445,8.67C8.712,7.099 9.634,5.286 9.634,5.286C9.634,5.286 9.213,6.878 7.642,7.916C2.44,11.358 3.932,14.931 6.34,15.738Z" style="fill:white;fill-rule:nonzero;stroke:rgb(136,28,40);stroke-width:0.5px;stroke-linecap:round;"/>
                <path d="M11.901,27.406C11.105,29.836 13.983,32.835 19.042,30.405C20.613,29.631 22.447,30.5 22.447,30.5C22.447,30.5 20.808,30.1 19.759,28.592C16.238,23.432 12.675,24.982 11.901,27.406Z" style="fill:white;fill-rule:nonzero;stroke:rgb(136,28,40);stroke-width:0.5px;stroke-linecap:round;"/>
                <path d="M14.304,22.974C13.524,25.414 16.433,28.381 21.398,25.952C23.006,25.209 24.808,26.057 24.808,26.057C24.808,26.057 23.201,25.667 22.152,24.118C18.626,18.979 15.058,20.55 14.304,22.974Z" style="fill:white;fill-rule:nonzero;stroke:rgb(136,28,40);stroke-width:0.5px;stroke-linecap:round;"/>
                <path d="M11.084,19.87C11.368,22.415 15.258,23.928 18.779,19.553C19.891,18.178 21.941,18.22 21.941,18.22C21.941,18.22 20.312,18.536 18.71,17.603C13.282,14.457 10.736,17.382 11.084,19.87Z" style="fill:white;fill-rule:nonzero;stroke:rgb(136,28,40);stroke-width:0.5px;stroke-linecap:round;"/>
                <path d="M8.185,23.633C7.363,26.105 10.251,29.103 15.3,26.611C16.871,25.846 18.71,26.758 18.71,26.758C18.71,26.758 17.05,26.368 15.98,24.798C12.465,19.68 8.928,21.282 8.185,23.633Z" style="fill:white;fill-rule:nonzero;stroke:rgb(136,28,40);stroke-width:0.5px;stroke-linecap:round;"/>
                <path d="M7.842,17.403C8.955,19.722 13.129,19.949 15.084,14.72C15.717,13.076 17.63,12.465 17.63,12.465C17.63,12.465 16.191,13.271 14.404,12.934C8.275,11.563 6.767,15.153 7.842,17.403Z" style="fill:white;fill-rule:nonzero;stroke:rgb(136,28,40);stroke-width:0.5px;stroke-linecap:round;"/>
                <path d="M3.252,21.872C5.687,22.742 8.749,19.912 6.398,14.794C5.676,13.224 6.588,11.426 6.588,11.426C6.588,11.426 6.14,12.986 4.596,14.056C-0.632,17.498 0.885,21.098 3.252,21.872Z" style="fill:white;fill-rule:nonzero;stroke:rgb(136,28,40);stroke-width:0.5px;stroke-linecap:round;"/>
                <path d="M4.77,22.89C5.861,25.219 10.03,25.456 12.043,20.175C12.633,18.541 14.568,17.941 14.568,17.941C14.568,17.941 13.134,18.758 11.316,18.362C5.191,17.029 3.7,20.602 4.77,22.89Z" style="fill:white;fill-rule:nonzero;stroke:rgb(136,28,40);stroke-width:0.5px;stroke-linecap:round;"/>
              </g>
            </g>
            <path d="M75.547,97.435C75.547,97.435 67.71,102.532 58.824,99.796C58.824,99.796 66.64,103.897 64.268,111.075C64.268,111.075 77.908,107.322 81.344,100.824C84.733,94.352 75.547,97.435 75.547,97.435Z" style="fill:white;fill-rule:nonzero;stroke:rgb(136,28,40);stroke-width:0.75px;"/>
            <path d="M80.211,91.817C80.211,91.817 66.555,83.21 66.555,87.864L66.555,98.094C66.555,98.094 73.518,101.493 81.36,98.442L80.211,91.817Z" style="fill:white;fill-rule:nonzero;stroke:rgb(136,28,40);stroke-width:0.75px;"/>
            <path d="M66.555,87.579C66.555,87.579 65.633,92.997 80.385,92.997" style="fill:none;stroke:rgb(136,28,40);stroke-width:0.75px;"/>
            <g transform="matrix(1,0,0,1,57.9751,0)">
              <path d="M45.816,55.624L6.52,55.624C5.471,55.624 4.622,56.484 4.622,57.553L4.622,75.647C4.622,76.696 5.471,77.534 6.52,77.534C7.563,77.534 8.417,76.696 8.417,75.647L8.417,59.419L43.898,59.419L43.898,75.647C43.898,76.696 44.773,77.534 45.816,77.534C46.875,77.534 47.719,76.696 47.719,75.647L47.719,57.553C47.719,56.489 46.875,55.624 45.816,55.624Z" style="fill:white;fill-rule:nonzero;"/>
              <path d="M5.592,31.881C4.459,32.434 4.016,33.799 4.575,34.933C5.155,36.055 6.52,36.514 7.658,35.918C7.658,35.918 24.328,27.449 26.189,26.516C28.034,27.449 44.646,35.918 44.646,35.918C45.785,36.514 47.15,36.055 47.719,34.933C48.283,33.799 47.835,32.44 46.723,31.881L28.439,22.542L28.439,13.213L43.075,13.213L43.075,24.639C43.075,25.899 44.114,26.927 45.373,26.927C46.638,26.927 47.656,25.899 47.656,24.639L47.656,10.957C47.656,9.677 46.644,8.67 45.373,8.67L28.445,8.67L28.445,6.562C28.445,5.292 27.412,4.274 26.168,4.274C24.903,4.274 23.886,5.292 23.886,6.562L23.886,8.67L6.883,8.67C5.613,8.67 4.601,9.677 4.601,10.957L4.601,24.639C4.601,25.899 5.613,26.927 6.883,26.927C8.159,26.927 9.181,25.899 9.181,24.639L9.181,13.213L23.886,13.213L23.886,22.563L5.592,31.881Z" style="fill:white;fill-rule:nonzero;"/>
              <path d="M45.911,37.167C44.899,37.167 44.087,37.974 44.04,39.012L35.454,39.012C34.4,39.012 33.546,39.839 33.546,40.899C33.546,41.937 34.395,42.796 35.454,42.796L44.014,42.796L44.014,44.799L35.454,44.799C34.4,44.799 33.546,45.647 33.546,46.686C33.546,47.756 34.395,48.583 35.454,48.583L44.014,48.583L44.014,50.565L35.454,50.565C34.4,50.565 33.546,51.456 33.546,52.494C33.546,53.532 34.395,54.381 35.454,54.381L45.911,54.381C46.955,54.381 47.814,53.532 47.814,52.494L47.814,39.086C47.814,38.047 46.955,37.167 45.911,37.167Z" style="fill:white;fill-rule:nonzero;"/>
              <path d="M6.393,54.381L16.834,54.381C17.898,54.381 18.742,53.532 18.742,52.494C18.742,51.456 17.893,50.565 16.834,50.565L8.301,50.565L8.301,48.583L16.834,48.583C17.898,48.583 18.742,47.756 18.742,46.686C18.742,45.647 17.893,44.799 16.834,44.799L8.301,44.799L8.301,42.796L16.834,42.796C17.898,42.796 18.742,41.937 18.742,40.899C18.742,39.839 17.893,39.012 16.834,39.012L8.269,39.012C8.222,37.974 7.4,37.167 6.393,37.167C5.355,37.167 4.485,38.047 4.485,39.086L4.485,52.494C4.485,53.532 5.35,54.381 6.393,54.381Z" style="fill:white;fill-rule:nonzero;"/>
              <path d="M32.303,39.012C31.923,38.248 30.99,37.953 30.242,38.311L26.247,40.409L22.231,38.311C21.461,37.953 20.539,38.248 20.186,39.012C19.785,39.702 20.08,40.656 20.829,41.036L22.9,42.127L20.829,43.155C20.08,43.534 19.791,44.446 20.186,45.199C20.539,45.953 21.461,46.248 22.231,45.869L26.247,43.792L30.242,45.869C30.996,46.248 31.928,45.953 32.303,45.199C32.693,44.446 32.398,43.534 31.649,43.155L29.583,42.127L31.649,41.036C32.398,40.656 32.693,39.702 32.303,39.012Z" style="fill:white;fill-rule:nonzero;"/>
              <path d="M32.303,47.26C31.923,46.507 30.99,46.232 30.242,46.591L26.247,48.678L22.215,46.591C21.461,46.232 20.539,46.507 20.186,47.26C19.785,47.993 20.08,48.936 20.829,49.326L22.895,50.365L20.829,51.424C20.075,51.793 19.785,52.747 20.186,53.469C20.539,54.201 21.461,54.528 22.215,54.128L26.247,52.072L30.242,54.128C30.996,54.528 31.928,54.201 32.303,53.469C32.693,52.747 32.398,51.793 31.633,51.424L29.578,50.365L31.633,49.326C32.398,48.936 32.693,47.993 32.303,47.26Z" style="fill:white;fill-rule:nonzero;"/>
              <path d="M39.908,60.985C38.87,60.985 38.021,61.833 38.021,62.924L38.021,73.755L28.123,73.755L28.123,72.258L33.973,72.258C35.012,72.258 35.881,71.431 35.881,70.371L35.881,62.929C35.881,61.838 35.012,60.99 33.973,60.99L18.294,60.99C17.229,60.99 16.386,61.838 16.386,62.929L16.386,70.371C16.386,71.431 17.229,72.258 18.294,72.258L24.323,72.258L24.323,73.755L14.399,73.755L14.399,62.924C14.399,61.833 13.55,60.985 12.512,60.985C11.447,60.985 10.599,61.833 10.599,62.924L10.599,75.652C10.599,76.701 11.447,77.539 12.512,77.539L24.323,77.539L24.323,80.296L11.084,80.296C10.024,80.296 9.176,81.134 9.176,82.203C9.176,83.252 10.024,84.101 11.084,84.101L26.215,84.101C27.28,84.101 28.123,83.252 28.123,82.203L28.123,77.539L39.908,77.539C40.967,77.539 41.821,76.701 41.821,75.652L41.821,62.924C41.826,61.833 40.973,60.985 39.908,60.985ZM20.191,64.8L32.065,64.8L32.065,68.447L20.191,68.447L20.191,64.8Z" style="fill:white;fill-rule:nonzero;"/>
            </g>
            <g>
              <path d="M92.85,97.435C92.85,97.435 100.687,102.532 109.562,99.796C109.562,99.796 101.694,103.897 104.081,111.075C104.081,111.075 90.452,107.322 87.031,100.824C83.579,94.352 92.85,97.435 92.85,97.435Z" style="fill:white;fill-rule:nonzero;stroke:rgb(136,28,40);stroke-width:0.75px;"/>
              <path d="M88.164,91.817C88.164,91.817 101.82,83.21 101.82,87.864L101.82,98.094C101.82,98.094 94.821,101.493 86.968,98.442L88.164,91.817Z" style="fill:white;fill-rule:nonzero;stroke:rgb(136,28,40);stroke-width:0.75px;"/>
              <path d="M101.82,87.579C101.82,87.579 102.742,92.997 87.996,92.997" style="fill:none;stroke:rgb(136,28,40);stroke-width:0.75px;"/>
              <rect x="79.995" y="91.616" width="8.391" height="11.595" style="fill:white;fill-rule:nonzero;stroke:rgb(136,28,40);stroke-width:0.75px;"/>
            </g>
          </g>
        </g>
      </g>
    </g>
    <g transform="matrix(1.04075,0,0,1.20519,-71.2014,-152.038)"/>
  </g>
</svg>